<svg height="800" width="800" xmlns="http://www.w3.org/2000/svg" viewBox="0 0 462.085 462.085" xml:space="preserve"><path fill="#f1bc0f" d="M452.585 98.818H58.465a9.5 9.5 0 0 0-9.5 9.5v14.98h-14.98a9.5 9.5 0 0 0-9.5 9.5v14.979H9.5a9.5 9.5 0 0 0-9.5 9.5v196.49a9.5 9.5 0 0 0 9.5 9.5h394.117a9.5 9.5 0 0 0 9.5-9.5v-14.98h14.978a9.5 9.5 0 0 0 9.5-9.5v-14.98h14.99a9.5 9.5 0 0 0 9.5-9.5v-196.49c0-5.246-4.253-9.499-9.5-9.499zM46.808 166.777C43.341 180.385 32.607 191.118 19 194.586v-27.809h27.808zm347.309 27.809c-13.609-3.467-24.343-14.201-27.811-27.809h27.811v27.809zm-47.2-27.809c4.027 24.105 23.095 43.173 47.201 47.199v83.09c-24.107 4.026-43.175 23.095-47.201 47.201H66.198c-4.026-24.105-23.093-43.173-47.198-47.2v-83.091c24.105-4.028 43.171-23.094 47.198-47.199h280.719zM19 316.457c13.608 3.468 24.342 14.202 27.808 27.811H19v-27.811zm347.306 27.81c3.467-13.609 14.202-24.344 27.811-27.811v27.811h-27.811zm52.289-24.48h-5.478v-162.51a9.5 9.5 0 0 0-9.5-9.5H43.484v-5.479h375.11v177.489zm24.49-24.48h-5.49v-162.51a9.5 9.5 0 0 0-9.5-9.5H67.965v-5.48h375.12v177.49z"/><path fill="#f1bc0f" d="M161.564 311.56c11.817 15.934 27.797 24.708 44.994 24.708 17.198 0 33.178-8.775 44.995-24.708 11.187-15.083 17.347-34.984 17.347-56.038 0-21.055-6.16-40.956-17.347-56.038-11.817-15.934-27.797-24.708-44.995-24.708-17.197 0-33.177 8.775-44.994 24.708-11.187 15.082-17.347 34.983-17.347 56.038.001 21.054 6.161 40.956 17.347 56.038zm44.995 5.708c-9.053 0-17.463-3.981-24.423-10.77 1.486-12.161 11.868-21.612 24.423-21.612 12.556 0 22.938 9.451 24.424 21.612-6.961 6.789-15.371 10.77-24.424 10.77zm.003-51.778c-8.022 0-14.549-6.526-14.549-14.548s6.526-14.549 14.549-14.549c8.021 0 14.548 6.526 14.548 14.549-.001 8.021-6.527 14.548-14.548 14.548zm-.003-71.714c23.898 0 43.342 27.699 43.342 61.747 0 11.458-2.209 22.189-6.042 31.396a43.947 43.947 0 0 0-12.579-13.322c5.479-5.973 8.83-13.929 8.83-22.655 0-18.499-15.05-33.549-33.548-33.549-18.499 0-33.549 15.05-33.549 33.549 0 8.725 3.35 16.68 8.829 22.653a43.94 43.94 0 0 0-12.582 13.324c-3.833-9.206-6.042-19.938-6.042-31.396 0-34.048 19.442-61.747 43.341-61.747z"/></svg>